# xmcd CD database file
# Copyright (C) 1996 Ti Kan
#
# Track frame offsets:
#	150
#	18155
#	37788
#	48806
#	65780
#	77056
#	91129
#	108667
#	121690
#	131464
#	146029
#	159252
#	175082
#	190095
#	203581
#	221039
#	233527
#	250038
#	264990
#	281570
# Disc length: 3944 seconds
#
# Revision: 1
# Processed by: cddbd v1.5.2PL0 Copyright (c) Steve Scherf et al.
# Submitted via: CDCOPY 4.900
#
DISCID=020f6614
DTITLE=Alan Jackson - The Greatest Hits Collection
DYEAR=1900
DGENRE=
TTITLE0=Chattahoochee (extended mix)
TTITLE1=Gone Country
TTITLE2=She's Got The Rhythm (And I Got The Blues)
TTITLE3=Midnight In Montgomery
TTITLE4=Tall, Tall Trees
TTITLE5=Chasin' That Neon Rainbow
TTITLE6=I'll Try
TTITLE7=Don't Rock The Jukebox
TTITLE8=Livin' On Love
TTITLE9=Summertime Blues
TTITLE10=Love's Got A Hole On You
TTITLE11=(Who Says) You Can't Have It All
TTITLE12=Home
TTITLE13=Wanted
TTITLE14=I Don't Even Know Your Name
TTITLE15=Dallas
TTITLE16=Here In The Real World
TTITLE17=Someday
TTITLE18=Mercury Blues
TTITLE19=I'd Love You All Over Again
EXTD=
EXTT0=
EXTT1=
EXTT2=
EXTT3=
EXTT4=
EXTT5=
EXTT6=
EXTT7=
EXTT8=
EXTT9=
EXTT10=
EXTT11=
EXTT12=
EXTT13=
EXTT14=
EXTT15=
EXTT16=
EXTT17=
EXTT18=
EXTT19=
PLAYORDER=
